<?xml version="1.0" standalone="no"?><!DOCTYPE svg PUBLIC "-//W3C//DTD SVG 1.1//EN" "http://www.w3.org/Graphics/SVG/1.1/DTD/svg11.dtd"><svg t="1694869706216" class="icon" viewBox="0 0 1024 1024" version="1.1" xmlns="http://www.w3.org/2000/svg" p-id="1764" width="250" height="250" xmlns:xlink="http://www.w3.org/1999/xlink"><path d="M164.2 775c0 61.6 130.6 111.6 291.7 111.6S747.6 836.7 747.6 775c0-61.6-130.6-111.6-291.7-111.6-161.1 0.1-291.7 50-291.7 111.6z m0 0" fill="#E26969" p-id="1765"></path><path d="M463.5 905.4c-150.6 0-310.6-45.7-310.6-130.4s160-130.4 310.6-130.4S774 690.3 774 775 614 905.4 463.5 905.4z m0-223.1c-169.1 0-272.9 54-272.9 92.7s103.8 92.7 272.9 92.7c169.1 0 272.9-54 272.9-92.7s-103.9-92.7-272.9-92.7z" fill="#4C2F1B" p-id="1766"></path><path d="M686.6 665.7c-6.6 0-12.8-1.8-17.7-5.8-8.9-6.6-13.3-17.7-11.1-29.7l24.8-155.8c2.2-12.8 10.6-24.3 22.6-30.1 7.1-3.5 44.7-20.4 80.1-20.4 21.2 0 38.5 5.8 50.9 17.7 22.6 21.3 27 58 12.8 109.3-19.5 69.9-48.3 82.3-93.4 94.3-14.6 4-32.3 8.4-55.3 17.7l-4 1.3c-3.1 1-6.6 1.5-9.7 1.5z m47.8-83.7c5.3-1.3 10.6-2.7 15.1-3.5 29.2-7.1 29.2-7.1 38.1-37.6 8.9-31.4 5.3-43.4 3.5-45.2 0 0-2.2-1.8-9.7-1.8-8.4 0-20.8 2.7-33.6 7.1l-13.4 81z m0 0" fill="#F96B6B" p-id="1767"></path><path d="M785.3 438.6c15.5 0 30.5 3.5 41.2 13.7 18.6 17.3 21.7 49.1 8.9 95.2-18.2 64.2-41.6 73.5-83.7 84.1-14.6 4-33.2 8.9-57.1 18.1-0.9 0.4-1.8 0.4-2.2 0.9-1.8 0.4-4 0.9-5.8 0.9-3.5 0-6.6-0.9-9.3-3.1-4.4-3.5-6.6-9.3-5.8-15.9l24.8-155.8c1.3-8.4 7.1-15.9 14.6-19.5 5.8-2.7 41.6-18.6 74.4-18.6m-68.2 162.9c14.2-4.4 25.7-7.1 35.9-9.3 35-8.4 37.2-8.9 48.3-47.4 6.2-21.2 10.6-49.1-0.9-59.3-4.4-4-11.1-5.3-19-5.3-14.2 0-32.3 5.3-46 10.6l-18.3 110.7m68.2-190.8c-38.5 0-78.8 17.7-86.3 21.7-15.9 7.5-27.9 23-30.5 40.7l-24.8 155.8c-2.7 16.8 3.5 33.6 16.8 43.4 7.5 5.3 16.4 8.4 26.1 8.4 4.4 0 8.9-0.4 13.3-1.8 1.8-0.4 3.5-0.9 5.3-1.8 22.1-8.9 39.8-13.3 53.6-16.8 48.7-12.8 81.9-26.6 103.6-104 15.9-56.7 10.2-98.3-16.8-123.5-15.2-15-35.5-22.1-60.3-22.1z m-25.2 100.9c7.1-2.2 13.7-3.5 19-3.5 0 4.9-0.9 14.2-5.3 29.2-1.8 5.8-5.3 18.1-7.5 22.1-2.7 1.3-8.4 2.7-14.6 4l8.4-51.8z m0 0" fill="#4C2F1B" p-id="1768"></path><path d="M740.6 467.8L467 472.7H189.4S169 793.2 467 793.2s273.6-325.4 273.6-325.4z m0 0" fill="#FF7171" p-id="1769"></path><path d="M465.3 812c-89.5 0-160.7-27.7-211.8-82.2-83-88.5-85.8-218.9-84.7-256.8v-1.7c0.7-9.7 9-17.5 18.9-17.5h277.6s273.2-4.9 273.3-4.9c10.6 0 18.5 7.5 19.2 17.4 1.1 16.7 8.1 165.7-82.5 263.5-50.7 54.6-121.3 82.2-210 82.2zM206.5 496.3c1.2 40.1 11 140.6 74.7 208 43.8 46.5 105.8 70.1 184.4 70.1 77.6 0 138.7-23.4 181.8-69.6C711.2 636 720 533 720.8 491.9l0.1-4.8-254.9 4.5H206.4l0.1 4.7z" fill="#4C2F1B" p-id="1770"></path><path d="M185.9 477.5c0 75.3 124.3 136.3 277.6 136.3s277.6-61 277.6-136.3c0-75.3-124.3-136.3-277.6-136.3s-277.6 61-277.6 136.3z m0 0" fill="#D6E6EA" p-id="1771"></path><path d="M185.9 477.5c0 75.3 124.3 136.3 277.6 136.3s277.6-61 277.6-136.3c0-75.3-124.3-136.3-277.6-136.3s-277.6 61-277.6 136.3z m0 0" fill="#FCDCD6" p-id="1772"></path><path d="M459 408.9c-127.5 0-217.8 44.3-253.2 94.3 4 74.8 107.1 110.7 258.1 110.7 139 0 237.7-21.2 258.5-87.7-21.2-59.3-121.3-117.3-263.4-117.3z m0 0" fill="#724E3B" p-id="1773"></path><path d="M463.5 632.7c-166.2 0-296.4-68.2-296.4-155.2 0-87 130.2-155.2 296.4-155.2s296.4 68.2 296.4 155.2c0 87.1-130.2 155.2-296.4 155.2z m0-272.7c-154.8 0-258.7 60.8-258.7 117.5C204.7 533.1 311 595 463.5 595s258.7-61.9 258.7-117.5c0-56.7-104-117.5-258.7-117.5z" fill="#4C2F1B" p-id="1774"></path><path d="M287.3 519.6s110.7-9.3 133.2-14.2c22.1-4.9 61.1-4 86.3-4.9 25.2-0.9 104.9 9.3 104.9 9.3s-83.7 1.3-87.2 0-88.5 11.1-88.5 11.1l-148.7-1.3z m12.4-44.3s61.1-32.8 83.2-37.2c22.1-4.9 61.1-4 86.3-4.9 25.2-0.9 76.1 5.3 76.1 5.3s-54.9 5.3-58.4 4c-3.5-1.3-76.6 19-76.6 19l-110.6 13.8z m92.5 97.9s30.5-1.8 52.7-6.6c22.1-4.9 61.1-4 86.3-4.9 25.2-0.4 44.3-4 44.3-4s-24.3 10.2-31.9 12.8c-3.5 1.3-58 10.2-58 10.2l-93.4-7.5z m0 0" fill="#9B6F5C" p-id="1775"></path><path d="M376.7 304.4c-3.1 0-6.6-1.3-9.3-3.5-5.8-5.3-6.6-14.2-1.3-19.9 17.3-19.5 11.5-35 7.1-42.1-1.3-2.2-3.5-4.4-5.8-7.1-10.6-12.8-31-36.3-3.1-73.9 4.4-6.2 13.3-7.5 19.5-3.1 6.2 4.4 7.5 13.3 3.1 19.5-14.6 19.9-8.4 27 1.8 39 2.7 3.1 5.3 6.2 7.5 9.7 5.8 8.9 22.1 40.3-9.3 76.1-2.2 3.6-6.2 5.3-10.2 5.3z m0 0M479.4 270.8c-3.1 0-6.6-1.3-9.3-3.5-5.8-5.3-6.6-14.2-1.3-19.9 17.3-19.5 11.5-35 7.1-42.1-1.3-2.2-3.5-4.4-5.8-7.1-10.6-12.8-31-36.3-3.1-73.9 4.4-6.2 13.3-7.5 19.5-3.1 6.2 4.4 7.5 13.3 3.1 19.5-14.6 19.9-8.4 27 1.8 39 2.7 3.1 5.3 6.2 7.5 9.7 5.8 8.9 22.1 40.3-9.3 76.1-2.2 4-6.2 5.3-10.2 5.3z m0 0M582.1 304.4c-3.1 0-6.6-1.3-9.3-3.5-5.8-5.3-6.6-14.2-1.3-19.9 17.3-19.5 11.5-35 7.1-42.1-1.3-2.2-3.5-4.4-5.8-7.1-10.6-12.8-31-36.3-3.1-73.9 4.4-6.2 13.3-7.5 19.5-3.1 6.2 4.4 7.5 13.3 3.1 19.5-14.6 19.9-8.4 27 1.8 39 2.7 3.1 5.3 6.2 7.5 9.7 5.8 8.9 22.1 40.3-9.3 76.1-2.2 3.6-6.2 5.3-10.2 5.3z m0 0" fill="#4C2F1B" p-id="1776"></path><path d="M467.9 659c-24.3 0.9-43.4 21.3-49.6 39-9.7 27.9 8 43.8 23.5 43.8 9.7 0 21.2-15.9 16.8-31-7.5-23.9 29.2-52.6 9.3-51.8z m0 85.5c24.3-0.9 41.6-21.2 47.8-39 9.7-27.9-8-43.8-24.8-43.8-6.2 0-19.5 8-15.5 31 4.4 24.8-27.4 52.7-7.5 51.8z m0 0" fill="#FFFFFF" p-id="1777"></path></svg>